<?xml version="1.0" standalone="no"?>
<!DOCTYPE svg PUBLIC "-//W3C//DTD SVG 20010904//EN"
 "http://www.w3.org/TR/2001/REC-SVG-20010904/DTD/svg10.dtd">
<svg version="1.0" xmlns="http://www.w3.org/2000/svg"
 width="998.000000pt" height="998.000000pt" viewBox="0 0 998.000000 998.000000"
 preserveAspectRatio="xMidYMid meet">
<metadata>
Created by potrace 1.14, written by Peter Selinger 2001-2017
</metadata>
<g transform="translate(0.000000,998.000000) scale(0.100000,-0.100000)"
fill="#000000" stroke="none">
<path d="M1215 6093 c-418 -55 -766 -340 -899 -736 -41 -123 -54 -216 -50
-367 1 -74 5 -142 7 -150 2 -8 7 -33 11 -55 36 -191 173 -428 324 -565 228
-205 469 -294 772 -285 175 5 294 34 445 110 366 182 591 534 601 940 5 202
-31 360 -119 530 -148 284 -404 482 -727 560 -62 15 -299 27 -365 18z"/>
<path d="M3630 6094 c-14 -3 -51 -9 -82 -15 -32 -7 -60 -11 -63 -11 -10 3
-166 -58 -223 -87 -131 -66 -260 -172 -354 -288 -49 -62 -139 -209 -151 -248
-3 -11 -15 -47 -27 -80 -40 -115 -52 -189 -56 -325 -2 -93 2 -160 13 -215 86
-450 411 -779 863 -875 126 -27 341 -21 472 13 139 36 307 119 405 199 209
171 348 403 396 663 15 80 17 313 2 380 -48 231 -147 418 -305 575 -98 97
-111 108 -223 173 -166 97 -317 138 -517 142 -69 1 -136 1 -150 -1z"/>
<path d="M5984 6085 c-180 -33 -355 -111 -492 -221 -215 -172 -347 -396 -397
-672 -14 -75 -14 -290 -1 -357 4 -16 9 -43 12 -58 38 -184 146 -379 294 -527
161 -162 356 -264 581 -304 83 -15 292 -16 369 -1 393 72 718 351 843 726 104
310 59 664 -118 932 -19 28 -42 63 -52 77 -33 49 -179 186 -248 231 -118 78
-239 132 -362 160 -27 6 -57 13 -68 16 -46 11 -294 10 -361 -2z"/>
<path d="M8413 6088 c-352 -54 -657 -279 -813 -602 -83 -171 -106 -281 -104
-501 2 -172 30 -288 104 -442 121 -248 316 -430 574 -535 214 -88 492 -100
716 -31 278 85 527 296 657 558 80 160 118 341 110 525 -3 63 -8 122 -11 130
-3 8 -7 31 -10 50 -3 19 -17 71 -32 115 -128 384 -457 665 -852 729 -93 15
-254 17 -339 4z"/>
</g>
</svg>
